<svg xmlns="http://www.w3.org/2000/svg" width="405.595" height="211.791" viewBox="0 0 405.595 211.791"><g transform="translate(18.38)"><ellipse cx="191.226" cy="12.66" rx="191.226" ry="12.66" transform="translate(4.764 186.472)" fill="#f2f2f2"/><g transform="translate(-18.38 164.714)" opacity="0.5"><path d="M51.818,409.5l-9.353.191-1.525,2.1v7.254l1.908,1.337h8.971l1.911-2.1v-6.872Z" transform="translate(-40.94 -409.497)" fill="#6c63ff"/><path d="M144.483,526.548s-8.591,1.337-9.353,0l.191-.957,9.162-.191Z" transform="translate(-133.793 -525.4)" fill="#fff" opacity="0.2"/><path d="M144.212,591.23l1.528,1.528v7.254l-1.528,1.528s-5.535,1.914-9.162.383L133.33,600.2v-7.254l1.528-1.719Z" transform="translate(-132.568 -570.229)" fill="#6c63ff"/><path d="M147.091,592.949s-6.68,1.528-8.971,0V591.23h9.353Z" transform="translate(-135.829 -570.229)" fill="#fff" opacity="0.2"/><path d="M149.138,556.233v10.326a1.55,1.55,0,0,1-1.624,1.464h0a1.55,1.55,0,0,1-1.624-1.464V556.233a1.571,1.571,0,0,1,1.812-1.455h0a1.528,1.528,0,0,1,1.436,1.455Z" transform="translate(-141.121 -545.399)" fill="#6c63ff"/><path d="M98.772,410.42l-9.353.191-1.528,2.1v7.254L89.8,421.3h8.971l1.908-2.1v-6.872Z" transform="translate(-72.912 -410.123)" fill="#6c63ff"/><path d="M191.433,527.478s-8.591,1.337-9.353,0l.191-.957,9.162-.191Z" transform="translate(-165.766 -526.033)" fill="#fff" opacity="0.2"/><path d="M191.162,592.153l1.528,1.528v7.254l-1.528,1.528s-5.535,1.914-9.162.383l-1.719-1.719v-7.258l1.528-1.719Z" transform="translate(-164.54 -570.856)" fill="#6c63ff"/><path d="M194.051,593.869s-6.68,1.528-8.971,0V592.15h9.353Z" transform="translate(-167.809 -570.856)" fill="#fff" opacity="0.2"/><path d="M196.068,557.153v10.326a1.55,1.55,0,0,1-1.624,1.464h0a1.55,1.55,0,0,1-1.624-1.464V557.153a1.571,1.571,0,0,1,1.812-1.455h0A1.528,1.528,0,0,1,196.068,557.153Z" transform="translate(-173.079 -546.026)" fill="#6c63ff"/><path d="M254.841,544.591s-7.073,1.1-7.7,0l.156-.785,7.541-.156Z" transform="translate(-210.071 -537.828)" fill="#fff" opacity="0.2"/><path d="M257,599.243s-5.5,1.257-7.385,0V597.83h7.7Z" transform="translate(-211.753 -574.724)" fill="#fff" opacity="0.2"/><path d="M293.5,545.351s-7.073,1.1-7.7,0l.156-.785,7.541-.156Z" transform="translate(-236.398 -538.346)" fill="#fff" opacity="0.2"/><path d="M295.655,599.983s-5.5,1.257-7.385,0V598.57h7.7Z" transform="translate(-238.08 -575.228)" fill="#fff" opacity="0.2"/></g><path d="M489.354,324.894c-31.156,0-53.525,19.989-53.525,66.629,0,52.859,22.37,66.851,53.525,66.851s54.858-15.325,54.858-66.851C544.212,336.443,520.51,324.894,489.354,324.894Zm.2,115.935c-21.579,0-32.853-12.66-32.853-49.271,0-32.3,11.735-49.34,33.315-49.34s33.315,11.19,33.315,49.34c0,35.689-12.2,49.272-33.776,49.272Z" transform="translate(-300.693 -264.351)" fill="#4b4b96"/><path d="M214.47,430.73H201.589V392.8a7.6,7.6,0,0,0-7.6-7.6h-3.018a7.6,7.6,0,0,0-7.6,7.6V430.73H147.042a4.337,4.337,0,0,1-3.835-6.363l38.456-72.785a7.6,7.6,0,0,0-3.473-10.418l-2.27-1.072a7.6,7.6,0,0,0-9.943,3.288l-46.9,87.74a10.3,10.3,0,0,0-1.217,4.856h0a10.3,10.3,0,0,0,10.3,10.3h55.218v23.987a9.106,9.106,0,0,0,9.106,9.106h0a9.106,9.106,0,0,0,9.106-9.106V446.276H214.47a7.773,7.773,0,0,0,7.773-7.773h0a7.773,7.773,0,0,0-7.773-7.773Z" transform="translate(-97.991 -273.574)" fill="#9698c8"/><path d="M872.467,430.73H859.585V392.8a7.6,7.6,0,0,0-7.6-7.6h-3.018a7.6,7.6,0,0,0-7.6,7.6V430.73H805.039a4.337,4.337,0,0,1-3.835-6.363l38.456-72.785a7.6,7.6,0,0,0-3.473-10.418l-2.27-1.072a7.6,7.6,0,0,0-9.943,3.288l-46.9,87.74a10.3,10.3,0,0,0-1.217,4.856h0a10.3,10.3,0,0,0,10.3,10.3h55.217v23.987a9.106,9.106,0,0,0,9.106,9.106h0a9.106,9.106,0,0,0,9.106-9.106V446.276h12.882a7.773,7.773,0,0,0,7.773-7.773h0a7.773,7.773,0,0,0-7.774-7.773Z" transform="translate(-517.456 -273.574)" fill="#9698c8"/><path d="M224.273,418.477H211.392V380.544a7.6,7.6,0,0,0-7.6-7.6h-3.018a7.6,7.6,0,0,0-7.6,7.6v37.933H156.845a4.337,4.337,0,0,1-3.835-6.363l38.456-72.785a7.6,7.6,0,0,0-3.473-10.418l-2.27-1.072a7.6,7.6,0,0,0-9.943,3.288l-46.9,87.74a10.3,10.3,0,0,0-1.217,4.856h0a10.3,10.3,0,0,0,10.3,10.3h55.217V458.01a9.106,9.106,0,0,0,9.106,9.106h0a9.106,9.106,0,0,0,9.106-9.106V434.023h12.882a7.773,7.773,0,0,0,7.773-7.773h0a7.773,7.773,0,0,0-7.773-7.773Z" transform="translate(-104.24 -265.763)" fill="none" stroke="#f0b413" stroke-miterlimit="10" stroke-width="1"/><path d="M890.846,418.477H877.964V380.544a7.6,7.6,0,0,0-7.6-7.6H867.35a7.6,7.6,0,0,0-7.6,7.6v37.933H823.418a4.337,4.337,0,0,1-3.834-6.363l38.456-72.785a7.6,7.6,0,0,0-3.473-10.418l-2.27-1.072a7.6,7.6,0,0,0-9.943,3.288l-46.9,87.74a10.3,10.3,0,0,0-1.217,4.856h0a10.3,10.3,0,0,0,10.3,10.3h55.218V458.01a9.106,9.106,0,0,0,9.106,9.106h0a9.106,9.106,0,0,0,9.106-9.106V434.023h12.882a7.774,7.774,0,0,0,7.773-7.773h0a7.773,7.773,0,0,0-7.774-7.773Z" transform="translate(-529.172 -265.763)" fill="none" stroke="#f0b413" stroke-miterlimit="10" stroke-width="1"/><path d="M508.959,313.866c-31.156,0-53.525,19.989-53.525,66.629,0,52.859,22.37,66.851,53.525,66.851s54.858-15.325,54.858-66.851C563.817,325.415,540.115,313.866,508.959,313.866Zm.2,115.935c-21.579,0-32.853-12.66-32.853-49.271,0-32.3,11.735-49.34,33.315-49.34s33.315,11.19,33.315,49.34c0,35.689-12.2,49.272-33.776,49.272Z" transform="translate(-313.191 -257.321)" fill="none" stroke="#f0b413" stroke-miterlimit="10" stroke-width="1"/><circle cx="4.677" cy="4.677" r="4.677" transform="translate(166.118 1.939)" fill="#2f2e41"/><ellipse cx="13.118" cy="16.996" rx="13.118" ry="16.996" transform="translate(169.083 0)" fill="#2f2e41"/><path d="M542.593,212.119c-6.571,0-12.014-6.261-12.969-14.43a22.113,22.113,0,0,0-.149,2.567c0,9.387,5.873,17,13.118,17s13.118-7.609,13.118-17a22.1,22.1,0,0,0-.149-2.567C554.607,205.858,549.164,212.119,542.593,212.119Z" transform="translate(-360.391 -183.259)" opacity="0.1"/><path d="M604.39,333.778c-.282,1.158-1.5,2.085-2.842,2.733-2.828,1.362-6.317,1.768-9.7,1.9a16.379,16.379,0,0,1-2.59-.048,7.445,7.445,0,0,1-4.441-2.041.609.609,0,0,1,.016-1.031c1.8-1.979,4.808-3.192,7.836-4.066,2.3-.662,6.3-2.378,8.805-2.147C603.9,329.307,604.745,332.316,604.39,333.778Z" transform="translate(-395.495 -267.007)" fill="#3f3d56"/><path d="M604.39,333.778c-.282,1.158-1.5,2.085-2.842,2.733-2.828,1.362-6.317,1.768-9.7,1.9a16.379,16.379,0,0,1-2.59-.048,7.445,7.445,0,0,1-4.441-2.041.609.609,0,0,1,.016-1.031c1.8-1.979,4.808-3.192,7.836-4.066,2.3-.662,6.3-2.378,8.805-2.147C603.9,329.307,604.745,332.316,604.39,333.778Z" transform="translate(-395.495 -267.007)" opacity="0.1"/><path d="M538.721,284.962a7.167,7.167,0,0,0-.435,5.465,9.548,9.548,0,0,0,3.2,4.53c3.659,2.933,8.7,3.337,13.386,3.3a103.208,103.208,0,0,0,12.291-.842,14.7,14.7,0,0,0,3.988-.926,6.114,6.114,0,0,0,3.421-3.453,4.207,4.207,0,0,0-1.136-4.558,7.138,7.138,0,0,0-4.168-1.139l-8.37-.5a14.2,14.2,0,0,1,2.935-1.918,13.237,13.237,0,0,0,3.195-3.384,46.756,46.756,0,0,1,4.872-5.009,7.193,7.193,0,0,0,2.424,3.924c1.163,1.078,2.5,1.946,3.714,2.973,2.929,2.486,5.037,5.861,8.118,8.157a15.891,15.891,0,0,0,5.818-2.9l-1.2-2.168a1.428,1.428,0,0,0-.451-.563c-.339-.208-.776-.1-1.169-.16-1.052-.158-1.511-1.372-1.924-2.352-1.133-2.69-3.3-4.778-5.154-7.034a35.525,35.525,0,0,1-3.624-5.337,18.262,18.262,0,0,0-2.036-3.264,4.593,4.593,0,0,0-3.313-1.733,6.381,6.381,0,0,0-3.159,1.154,83.55,83.55,0,0,0-8.566,5.836,19.821,19.821,0,0,1-4.528,2.963c-.706.287-1.45.482-2.128.831a14.227,14.227,0,0,0-3.057,2.561A20.316,20.316,0,0,1,538.721,284.962Z" transform="translate(-365.787 -226.843)" fill="#9698c8"/><path d="M569.43,227.8a8.619,8.619,0,0,1-.629,2.912,3.641,3.641,0,0,1-2.091,2.02,4.486,4.486,0,0,1-2.038.066,3.945,3.945,0,0,1-1.661-.566,3.541,3.541,0,0,1-1.319-2.445c-.143-.941-.079-1.9-.17-2.851a15.572,15.572,0,0,0-.436-2.268c-.062-.248-.124-.494-.186-.74s-.12-.493-.174-.739-.1-.464-.137-.7c-.033-.2-.063-.4-.084-.6a6.677,6.677,0,0,0-.293-1.744,5.294,5.294,0,0,0-.611-1.035c-.1-.148-.2-.3-.3-.451a2.135,2.135,0,0,1-.352-1.359,1.189,1.189,0,0,1,.054-.218c.009-.027.019-.055.031-.081a.653.653,0,0,0,.446-.417,1.243,1.243,0,0,0-.054-.644,4.1,4.1,0,0,0-.348-.829c-.1-.173-.421-.486-.423-.684,0-.4.776-.721,1.092-.878a6.089,6.089,0,0,1,3.116-.632,2.3,2.3,0,0,1,1.819.837,5.483,5.483,0,0,1,.443,1.8.535.535,0,0,0,.108.241.486.486,0,0,0,.268.123,1.649,1.649,0,0,0,.513.021h0a1.056,1.056,0,0,0,.135-.019,1.8,1.8,0,0,0,.737-.318q.212-.056.428-.092l.017,0c.572,1.8.646,3.737,1.113,5.573a14.3,14.3,0,0,1,.61,2.756c0,.041,0,.083.006.125.007.3-.017.607,0,.908a2.522,2.522,0,0,0,.046.4,5.645,5.645,0,0,0,.19.632l0,.01c.022.066.042.133.059.2.012.049.024.1.033.146v0A5.417,5.417,0,0,1,569.43,227.8Z" transform="translate(-378.995 -192.966)" fill="#fbbebe"/><circle cx="6.73" cy="6.73" r="6.73" transform="translate(175.7 9.582)" fill="#fbbebe"/><path d="M615.5,250.429a11.037,11.037,0,0,0-1.9-5.113q.262,1.557.525,3.113a1.165,1.165,0,0,1-1.221-.375,3.748,3.748,0,0,1-.64-1.187,24.456,24.456,0,0,0-2.976-5.342,31.77,31.77,0,0,1-12.287-4.2c-3.769-2.069-7.3-4.55-11.015-6.707a15.794,15.794,0,0,0-2.01-1.027c-1.163-.467-2.47-.708-3.573-1.257-.074-.037-.148-.075-.221-.115a4.563,4.563,0,0,1-.705-.473,3.735,3.735,0,0,1-.338-.31,7.376,7.376,0,0,1-1.29-2.158c-.592-1.309-.8-2.889-1.394-4.2a4.059,4.059,0,0,1,.907-.64h0c.048-.025.1-.049.145-.072a4.317,4.317,0,0,1,.727-.266q.212-.056.428-.092l.017,0a4.193,4.193,0,0,1,1.99.157,9.2,9.2,0,0,1,2.516,1.549,41.315,41.315,0,0,1,3.679,2.918c.65.623,1.243,1.307,1.943,1.873a15.281,15.281,0,0,0,1.833,1.215L602,234.474c1.281.763,2.563,1.526,3.816,2.334,1.9,1.227,3.737,2.557,5.57,3.886l3.24,2.349a3.529,3.529,0,0,1,.918.849,3.073,3.073,0,0,1,.407,1.245A11.378,11.378,0,0,1,615.5,250.429Z" transform="translate(-390.342 -197.448)" fill="#fbbebe"/><path d="M555.439,237.448c-.454,2.036-2.512,3.267-3.587,5.056-1.337,2.22-.792,4.8-.29,7.343l-2.753,2.371c-.506.435-1.013.871-1.558,1.256a20.8,20.8,0,0,1-2.487,1.428l-2.437,1.254a11.649,11.649,0,0,1-2.385,1.011,9.192,9.192,0,0,1-4.883-.352,2.208,2.208,0,0,1-.534-.218.869.869,0,0,1-.253-.229,1.418,1.418,0,0,1-.161-.921,43.261,43.261,0,0,1,1.461-7.863,23.176,23.176,0,0,1,3.358-8.239,24.786,24.786,0,0,1,2.875-4.174,6.7,6.7,0,0,0,1.332-1.718,9.2,9.2,0,0,0,.331-2.99,6.219,6.219,0,0,1,.592-2.178h0a6.2,6.2,0,0,1,.632-1.045l.332.772q.109.253.217.505.14.325.278.648l.8,1.854a7.827,7.827,0,0,0,1.209,2.155,2.356,2.356,0,0,0,4.032-.309,7.708,7.708,0,0,0,.824-2.18,6.964,6.964,0,0,0,.091-2.84,33.567,33.567,0,0,0-1.608-5.358,5.418,5.418,0,0,1-.391-1.766,1.219,1.219,0,0,1,.021-.2l.01-.052a4.329,4.329,0,0,1,.727-.266q.212-.056.428-.092.741,4.011,1.484,8.021c.011.063.024.125.035.189.071.383.143.767.222,1.149.072.347.149.692.236,1.036l0,.01c.03.116.06.232.092.347v0c.088.315.186.627.3.935C554.7,233.653,555.869,235.521,555.439,237.448Z" transform="translate(-363.335 -197.55)" fill="#4b4b96"/><path d="M668.315,335.578a2.387,2.387,0,0,0,.221,1.139,2.729,2.729,0,0,0,2.306,1.017,68.289,68.289,0,0,0,15.322-.467,1.771,1.771,0,0,0,.78-.242c.721-.506.277-1.738-.511-2.133a9.9,9.9,0,0,0-2.587-.47,8.149,8.149,0,0,1-2.421-1.05q-2.629-1.511-5.181-3.15c-1.013-.651-2.209-1.345-3.35-.959C669.8,330.309,668.295,332.244,668.315,335.578Z" transform="translate(-448.898 -267.066)" fill="#3f3d56"/><path d="M527.078,230.636h0c-.008.048-.016.095-.026.141-.013.078-.027.156-.042.234-.141.724-.315,1.445-.514,2.162-.547,1.979-1.281,3.926-2.009,5.845l-5.86,15.435c-.493,1.3-.985,2.593-1.545,3.862-.187.423-.38.85-.571,1.281a17.82,17.82,0,0,0-1.565,4.78,9.947,9.947,0,0,0-.07,3.277,3.362,3.362,0,0,0,1.9,2.527c.5.2,1.215.456,1.078.975-.074.285-.4.424-.689.472a2.651,2.651,0,0,1-2.163-.623c-.547-.485-.966-1.239-1.693-1.32a2.863,2.863,0,0,0-1.427.457c-1.88.859-4.07.258-6.045-.352a2.121,2.121,0,0,1,1.756-1.486,14.2,14.2,0,0,1,2.435-.068,1.272,1.272,0,0,0,.74-.19,1.344,1.344,0,0,0,.4-.682,28.638,28.638,0,0,0,1.165-4.766c.262-1.692.372-3.41.746-5.081.291-1.3.74-2.567,1.126-3.846a81.429,81.429,0,0,0,1.834-8,28.276,28.276,0,0,0,.517-3.4c.065-.947.034-1.9.125-2.841a22.078,22.078,0,0,1,.765-3.624l1.046-3.875a13.029,13.029,0,0,1,2.381-5.381,5.061,5.061,0,0,1,3.635-1.736,3.58,3.58,0,0,1,.772.083l.127.032a3.132,3.132,0,0,1,.788.326c.4-.257.609-.167.877.229a2.527,2.527,0,0,1,.319,1.376A19,19,0,0,1,527.078,230.636Z" transform="translate(-345.321 -200.551)" fill="#fbbebe"/><path d="M560.355,231.911l-.017.017-.092.092-.917.916-.449-1.888-1.541-6.472a3.583,3.583,0,0,1,.772.083,1.194,1.194,0,0,1,.054-.218l.073.25.523,1.777.989,3.374.163.556h0Z" transform="translate(-378.154 -200.314)" fill="#4b4b96"/><path d="M556.036,180.065a4.561,4.561,0,0,1-1.341,3.225,4.474,4.474,0,0,1-.493.426,4.542,4.542,0,0,1-2.732.915H546a4.564,4.564,0,0,1,0-9.128h5.473A4.578,4.578,0,0,1,556.036,180.065Z" transform="translate(-368.015 -169.116)" fill="#2f2e41"/><circle cx="4.677" cy="4.677" r="4.677" transform="translate(188.475 1.939)" fill="#2f2e41"/><path d="M595.253,163.234c-.057,0-.114,0-.171,0a4.676,4.676,0,0,1,0,9.345c.057,0,.114,0,.171,0a4.677,4.677,0,1,0,0-9.354Z" transform="translate(-402.215 -161.295)" opacity="0.1"/><path d="M525.971,163.234c.057,0,.114,0,.171,0a4.676,4.676,0,0,0,0,9.345c-.057,0-.114,0-.171,0a4.677,4.677,0,1,1,0-9.354Z" transform="translate(-355.176 -161.295)" opacity="0.1"/><path d="M557.423,198.159a4.542,4.542,0,0,1-2.732.915h-5.473a4.542,4.542,0,0,1-2.732-.915Z" transform="translate(-371.237 -183.559)" opacity="0.1"/><path d="M674.14,288.215s1.179,3.4,2.258,2.493l-.86-4.441Z" transform="translate(-452.614 -239.727)" fill="#fbbebe"/><path d="M591.886,525.16a1.79,1.79,0,0,1-.478,1.23,1.573,1.573,0,0,1-1.153.51H586.63A1.691,1.691,0,0,1,585,525.16a1.778,1.778,0,0,1,.3-.994,17.062,17.062,0,0,1,2.422-.166,17.29,17.29,0,0,1,4.035.464A1.835,1.835,0,0,1,591.886,525.16Z" transform="translate(-395.787 -391.278)" fill="#fff"/><g transform="translate(-835 -365.876)" opacity="0.5"><path d="M162.658,427.74l-7.7.156-1.257,1.729V435.6l1.573,1.1h7.385l1.57-1.729V429.31Z" transform="translate(919.892 118.672)" fill="#6c63ff"/><path d="M254.628,597.83l1.257,1.257v5.972l-1.257,1.257s-4.555,1.573-7.541.319l-1.416-1.413v-5.978l1.257-1.413Z" transform="translate(827.55 -34.134)" fill="#6c63ff"/><path d="M258.683,569v8.5a1.276,1.276,0,0,1-1.337,1.2h0a1.276,1.276,0,0,1-1.337-1.206V569a1.292,1.292,0,0,1,1.493-1.2h0A1.257,1.257,0,0,1,258.683,569Z" transform="translate(821.509 -13.677)" fill="#6c63ff"/><path d="M201.308,428.49l-7.7.159-1.257,1.726v5.972l1.573,1.1h7.385l1.573-1.729v-5.656Z" transform="translate(892.572 118.161)" fill="#6c63ff"/><path d="M293.285,598.576l1.257,1.257v5.972l-1.257,1.257s-4.556,1.573-7.541.319l-1.413-1.413v-5.985l1.257-1.413Z" transform="translate(802.223 -34.638)" fill="#6c63ff"/><path d="M297.293,569.762v8.5a1.276,1.276,0,0,1-1.337,1.206h0a1.276,1.276,0,0,1-1.337-1.206v-8.5a1.292,1.292,0,0,1,1.493-1.2h0A1.257,1.257,0,0,1,297.293,569.762Z" transform="translate(795.216 -14.194)" fill="#6c63ff"/></g></g></svg>